<svg id="visual" viewBox="0 0 1200 300" width="1200" height="300" xmlns="http://www.w3.org/2000/svg" xmlns:xlink="http://www.w3.org/1999/xlink" version="1.1"><path d="M0 124L18.2 115.8C36.3 107.7 72.7 91.3 109 77.8C145.3 64.3 181.7 53.7 218 67.5C254.3 81.3 290.7 119.7 327 125.8C363.3 132 399.7 106 436 99.2C472.3 92.3 508.7 104.7 545.2 114.2C581.7 123.7 618.3 130.3 654.8 135C691.3 139.7 727.7 142.3 764 144.5C800.3 146.7 836.7 148.3 873 149.8C909.3 151.3 945.7 152.7 982 137.3C1018.3 122 1054.7 90 1091 90.2C1127.3 90.3 1163.7 122.7 1181.8 138.8L1200 155L1200 0L1181.8 0C1163.7 0 1127.3 0 1091 0C1054.7 0 1018.3 0 982 0C945.7 0 909.3 0 873 0C836.7 0 800.3 0 764 0C727.7 0 691.3 0 654.8 0C618.3 0 581.7 0 545.2 0C508.7 0 472.3 0 436 0C399.7 0 363.3 0 327 0C290.7 0 254.3 0 218 0C181.7 0 145.3 0 109 0C72.7 0 36.3 0 18.2 0L0 0Z" fill="#3D405B" stroke-linecap="round" stroke-linejoin="miter"></path></svg>