<svg id="visual" viewBox="0 0 1200 300" width="1200" height="300" xmlns="http://www.w3.org/2000/svg" xmlns:xlink="http://www.w3.org/1999/xlink" version="1.1"><path d="M0 174L18.2 182.2C36.3 190.3 72.7 206.7 109 220.2C145.3 233.7 181.7 244.3 218 230.5C254.3 216.7 290.7 178.3 327 172.2C363.3 166 399.7 192 436 198.8C472.3 205.7 508.7 193.3 545.2 183.8C581.7 174.3 618.3 167.7 654.8 163C691.3 158.3 727.7 155.7 764 153.5C800.3 151.3 836.7 149.7 873 148.2C909.3 146.7 945.7 145.3 982 160.7C1018.3 176 1054.7 208 1091 207.8C1127.3 207.7 1163.7 175.3 1181.8 159.2L1200 143L1200 301L1181.8 301C1163.7 301 1127.3 301 1091 301C1054.7 301 1018.3 301 982 301C945.7 301 909.3 301 873 301C836.7 301 800.3 301 764 301C727.7 301 691.3 301 654.8 301C618.3 301 581.7 301 545.2 301C508.7 301 472.3 301 436 301C399.7 301 363.3 301 327 301C290.7 301 254.3 301 218 301C181.7 301 145.3 301 109 301C72.7 301 36.3 301 18.2 301L0 301Z" fill="#ffffff" stroke-linecap="round" stroke-linejoin="miter"></path></svg>