<svg id="visual" viewBox="0 0 1200 300" width="1200" height="300" xmlns="http://www.w3.org/2000/svg" xmlns:xlink="http://www.w3.org/1999/xlink" version="1.1"><path d="M0 248L18.2 249.3C36.3 250.7 72.7 253.3 109 244.2C145.3 235 181.7 214 218 213.8C254.3 213.7 290.7 234.3 327 236.3C363.3 238.3 399.7 221.7 436 213.2C472.3 204.7 508.7 204.3 545.2 214.7C581.7 225 618.3 246 654.8 250C691.3 254 727.7 241 764 231C800.3 221 836.7 214 873 219.7C909.3 225.3 945.7 243.7 982 245.5C1018.3 247.3 1054.7 232.7 1091 222.7C1127.3 212.7 1163.7 207.3 1181.8 204.7L1200 202L1200 301L1181.8 301C1163.7 301 1127.3 301 1091 301C1054.7 301 1018.3 301 982 301C945.7 301 909.3 301 873 301C836.7 301 800.3 301 764 301C727.7 301 691.3 301 654.8 301C618.3 301 581.7 301 545.2 301C508.7 301 472.3 301 436 301C399.7 301 363.3 301 327 301C290.7 301 254.3 301 218 301C181.7 301 145.3 301 109 301C72.7 301 36.3 301 18.2 301L0 301Z" fill="#ffffff" stroke-linecap="round" stroke-linejoin="miter"></path></svg>