<svg id="visual" viewBox="0 0 900 600" width="900" height="600" xmlns="http://www.w3.org/2000/svg" xmlns:xlink="http://www.w3.org/1999/xlink" version="1.1"><path d="M0 151L13.7 134.2C27.3 117.3 54.7 83.7 82 69.3C109.3 55 136.7 60 163.8 74.2C191 88.3 218 111.7 245.2 120.7C272.3 129.7 299.7 124.3 327 105.5C354.3 86.7 381.7 54.3 409 48C436.3 41.7 463.7 61.3 491 79.8C518.3 98.3 545.7 115.7 573 110.7C600.3 105.7 627.7 78.3 654.8 72.8C682 67.3 709 83.7 736.2 89.7C763.3 95.7 790.7 91.3 818 100.8C845.3 110.3 872.7 133.7 886.3 145.3L900 157L900 0L886.3 0C872.7 0 845.3 0 818 0C790.7 0 763.3 0 736.2 0C709 0 682 0 654.8 0C627.7 0 600.3 0 573 0C545.7 0 518.3 0 491 0C463.7 0 436.3 0 409 0C381.7 0 354.3 0 327 0C299.7 0 272.3 0 245.2 0C218 0 191 0 163.8 0C136.7 0 109.3 0 82 0C54.7 0 27.3 0 13.7 0L0 0Z" fill="#3D405B" stroke-linecap="round" stroke-linejoin="miter"></path></svg>