<svg id="visual" viewBox="0 0 1400 300" width="1400" height="300" xmlns="http://www.w3.org/2000/svg" xmlns:xlink="http://www.w3.org/1999/xlink" version="1.1"><path d="M0 206L19.5 204.3C39 202.7 78 199.3 116.8 185.7C155.7 172 194.3 148 233.2 134.2C272 120.3 311 116.7 350 119.2C389 121.7 428 130.3 466.8 143.7C505.7 157 544.3 175 583.2 191.8C622 208.7 661 224.3 700 221.2C739 218 778 196 816.8 174.2C855.7 152.3 894.3 130.7 933.2 118.7C972 106.7 1011 104.3 1050 103.5C1089 102.7 1128 103.3 1166.8 128.3C1205.7 153.3 1244.3 202.7 1283.2 224.2C1322 245.7 1361 239.3 1380.5 236.2L1400 233L1400 301L1380.5 301C1361 301 1322 301 1283.2 301C1244.3 301 1205.7 301 1166.8 301C1128 301 1089 301 1050 301C1011 301 972 301 933.2 301C894.3 301 855.7 301 816.8 301C778 301 739 301 700 301C661 301 622 301 583.2 301C544.3 301 505.7 301 466.8 301C428 301 389 301 350 301C311 301 272 301 233.2 301C194.3 301 155.7 301 116.8 301C78 301 39 301 19.5 301L0 301Z" fill="#81b29a" stroke-linecap="round" stroke-linejoin="miter"></path></svg>