<svg id="visual" viewBox="0 0 1200 300" width="1200" height="300" xmlns="http://www.w3.org/2000/svg" xmlns:xlink="http://www.w3.org/1999/xlink" version="1.1"><path d="M0 50L18.2 48.7C36.3 47.3 72.7 44.7 109 53.8C145.3 63 181.7 84 218 84.2C254.3 84.3 290.7 63.7 327 61.7C363.3 59.7 399.7 76.3 436 84.8C472.3 93.3 508.7 93.7 545.2 83.3C581.7 73 618.3 52 654.8 48C691.3 44 727.7 57 764 67C800.3 77 836.7 84 873 78.3C909.3 72.7 945.7 54.3 982 52.5C1018.3 50.7 1054.7 65.3 1091 75.3C1127.3 85.3 1163.7 90.7 1181.8 93.3L1200 96L1200 0L1181.8 0C1163.7 0 1127.3 0 1091 0C1054.7 0 1018.3 0 982 0C945.7 0 909.3 0 873 0C836.7 0 800.3 0 764 0C727.7 0 691.3 0 654.8 0C618.3 0 581.7 0 545.2 0C508.7 0 472.3 0 436 0C399.7 0 363.3 0 327 0C290.7 0 254.3 0 218 0C181.7 0 145.3 0 109 0C72.7 0 36.3 0 18.2 0L0 0Z" fill="#ffffff" stroke-linecap="round" stroke-linejoin="miter"></path></svg>